<svg id="Capa_1" data-name="Capa 1" xmlns="http://www.w3.org/2000/svg" viewBox="0 0 392.24 197.9"><defs><style>.cls-1{fill:#ffd544;}.cls-2{fill:#fff;}</style></defs><circle class="cls-1" cx="375.61" cy="180.72" r="16.63"/><circle class="cls-1" cx="375.61" cy="105.08" r="16.63"/><path class="cls-2" d="M19.13,199.06A16.82,16.82,0,0,1,2.31,182.23V18A16.83,16.83,0,0,1,19.13,1.16h85.31a68.52,68.52,0,0,1,30.88,129.68l24.76,27.93,32.29-24A97.38,97.38,0,0,1,354.78,33a16.84,16.84,0,0,1-2.41,24.84l-115,85.4A63.67,63.67,0,0,0,334.26,136a16.83,16.83,0,0,1,27.19,19.83,97.3,97.3,0,0,1-151.22,7.57L167.77,195a16.82,16.82,0,0,1-22.63-2.35l-53.3-60.1a16.84,16.84,0,0,1,12.6-28,34.86,34.86,0,1,0,0-69.72H36V182.23A16.82,16.82,0,0,1,19.13,199.06ZM282.75,34.82a63.77,63.77,0,0,0-61.91,78.81l94.21-70A63.75,63.75,0,0,0,282.75,34.82Z" transform="translate(-2.31 -1.16)"/></svg>